<svg width="576" height="88" viewBox="0 0 576 88" fill="none" xmlns="http://www.w3.org/2000/svg">
<path d="M189.66 28.74L180.17 1H148.41L157.9 28.74H189.66Z" fill="#DBDBDB"/>
<path d="M148.41 1L118.74 87.77H150.5L180.18 1H148.41Z" fill="white"/>
<path d="M89.07 1L118.74 87.77H150.5L120.82 1H89.07Z" fill="#DBDBDB"/>
<path d="M89.04 1L59.36 87.77H91.12L120.8 1H89.04Z" fill="white"/>
<path d="M29.69 1L59.37 87.77H91.12L61.45 1H29.69Z" fill="#DBDBDB"/>
<path d="M29.68 1L0 87.77H31.76L61.43 1H29.68Z" fill="white"/>
<path d="M217 53.3224L223.235 11.0763L237.606 44.8579L252.244 11L258 53.3224H253.818L250.287 25.4697L237.51 55L224.924 25.4697L221.221 53.3224H217Z" fill="white"/>
<path d="M290 18.0857H275.054V29.6743H289.477V33.76H275.054V48.8957H290V53H271V14H290V18.0857Z" fill="white"/>
<path d="M308.822 14.0344C311.916 13.8239 314.998 14.5829 317.639 16.2053C318.94 17.2253 319.978 18.5402 320.667 20.0409C321.356 21.5415 321.676 23.1846 321.601 24.8334C321.601 30.8082 317.88 35.1871 312.468 35.5954L324 53H319.108L308.059 35.9479H307.018V53H303V14.0344H308.822ZM306.962 32.0885H309.529C314.532 32.0885 317.527 29.5093 317.527 24.9633C317.616 23.8362 317.395 22.7062 316.887 21.6955C316.379 20.6849 315.603 19.8322 314.644 19.2298C313.038 18.3838 311.229 17.9985 309.417 18.1165H307.018L306.962 32.0885Z" fill="white"/>
<path d="M339.15 30.1863L354.898 13.076H360.45L343.149 31.6882L361 53H355.315L340.155 34.673L339.093 35.8137V52.924H335V13H339.15V30.1863Z" fill="white"/>
<path d="M391 18.0857H375.289V29.6743H390.545V33.76H375.289V48.8957H391V53H371V14H391V18.0857Z" fill="white"/>
<path d="M405.901 48.8957H425.471V53H399L419.137 18.0857H401.609V14H426L405.901 48.8957Z" fill="white"/>
<path d="M458.122 14L467.491 38.96L476.821 14H486L470.348 53H464.671L449 14H458.122Z" fill="#DBDBDB"/>
<path d="M516 21.5957H503.553V29.1357H515.389V36.75H503.553V45.4043H516V53H495V14H516V21.5957Z" fill="#DBDBDB"/>
<path d="M540.986 14.0221C542.717 13.9206 544.45 14.1698 546.079 14.7542C547.707 15.3386 549.195 16.2456 550.45 17.4187C552.647 19.7938 553.803 22.9204 553.668 26.1238C553.852 28.5778 553.148 31.0167 551.68 33.0125C550.213 35.0083 548.075 36.4334 545.642 37.0376L557 53H546.589L536.632 37.6316V53H528V14.0221H540.986ZM536.556 31.7292H538.449C539.371 31.8053 540.298 31.6946 541.174 31.4041C542.05 31.1135 542.856 30.6492 543.541 30.0401C544.462 29.0174 544.955 27.6918 544.923 26.3279C544.972 25.5817 544.844 24.8345 544.548 24.1451C544.253 23.4558 543.798 22.8433 543.219 22.3559C541.821 21.4665 540.17 21.0374 538.506 21.1309H536.518L536.556 31.7292Z" fill="#DBDBDB"/>
<path d="M570.649 0.0126157C571.65 -0.0587614 572.649 0.173932 573.517 0.680397C574.384 1.18686 575.079 1.94362 575.512 2.85211C575.945 3.76059 576.094 4.7787 575.942 5.77383C575.79 6.76895 575.342 7.69497 574.658 8.43128C573.973 9.16758 573.083 9.68004 572.104 9.90191C571.125 10.1238 570.102 10.0448 569.169 9.67521C568.235 9.30563 567.434 8.6626 566.87 7.82986C566.306 6.99713 566.005 6.01328 566.006 5.00648C565.974 4.37025 566.069 3.73394 566.286 3.1354C566.504 2.53687 566.839 1.98833 567.272 1.52243C567.706 1.05652 568.228 0.682759 568.808 0.423384C569.388 0.16401 570.014 0.0243159 570.649 0.0126157V0.0126157ZM574.9 13.7224V53H566.491V13.7224H574.9Z" fill="#DBDBDB"/>
<path d="M219.244 77.0594H230.736V69H232V88H230.736V78.2664H219.244V88H218V69H219.244V77.0594Z" fill="white"/>
<path d="M253.31 81.9503H245.69L243.285 88H242L249.546 69L257 88H255.696L253.31 81.9503ZM252.887 80.8348L249.528 72.1005L246.113 80.8348H252.887Z" fill="white"/>
<path d="M267.154 86.8709H278.681V88H265L276.846 70.1486H266.137V69H279L267.154 86.8709Z" fill="white"/>
<path d="M290 69V88H289V69H290Z" fill="white"/>
<path d="M309.685 88L303.747 79.0355H303.203V88H302V69.021H304.63C305.988 68.9086 307.344 69.2493 308.501 69.9933C309.118 70.4541 309.613 71.0675 309.941 71.7775C310.269 72.4876 310.42 73.2714 310.38 74.0575C310.434 75.0788 310.153 76.0891 309.584 76.9253C309.014 77.7615 308.19 78.3747 307.242 78.6661C306.516 78.9205 305.754 79.0455 304.987 79.0355L311 88H309.685ZM303.203 77.9077H304.969C307.58 77.9077 309.14 76.4687 309.14 74.0186C309.192 73.3668 309.068 72.7129 308.783 72.1294C308.498 71.5458 308.062 71.0555 307.524 70.7128C306.638 70.3073 305.674 70.1145 304.706 70.1489H303.203V77.9077Z" fill="white"/>
<path d="M334.309 69L339.601 84.5404L344.709 69H346L339.583 88L333 69H334.309Z" fill="white"/>
<path d="M365 70.1486H357.308V77.04H364.904V78.1691H357.308V86.8709H365V88H356V69H365V70.1486Z" fill="white"/>
<path d="M390.223 77.9549L398.893 69H400.492L391.596 78.0912L401 88H399.345L390.712 78.9477L390.204 79.4344V88H389V69H390.223V77.9549Z" fill="white"/>
<path d="M428.999 78.3877C429.022 80.2712 428.484 82.1188 427.453 83.6958C426.423 85.2727 424.947 86.5078 423.214 87.2441C421.48 87.9804 419.566 88.1847 417.716 87.831C415.866 87.4773 414.163 86.5815 412.823 85.2576C411.483 83.9336 410.567 82.2412 410.191 80.3955C409.815 78.5497 409.997 76.6339 410.712 74.8915C411.428 73.1491 412.645 71.6587 414.21 70.6098C415.774 69.5609 417.616 69.0008 419.499 69.0007C420.742 68.9858 421.974 69.2176 423.126 69.6826C424.278 70.1477 425.327 70.8368 426.21 71.7099C427.094 72.5831 427.795 73.6229 428.274 74.7692C428.753 75.9155 428.999 77.1454 428.999 78.3877ZM427.741 78.3877C427.723 76.7617 427.224 75.1776 426.307 73.8347C425.39 72.4917 424.097 71.45 422.589 70.8405C421.081 70.2311 419.427 70.0812 417.835 70.4097C416.242 70.7383 414.782 71.5305 413.639 72.6868C412.496 73.8431 411.72 75.3117 411.409 76.9079C411.099 78.504 411.268 80.1563 411.894 81.6569C412.521 83.1574 413.577 84.4391 414.93 85.3406C416.284 86.2422 417.873 86.7233 419.499 86.7234C420.594 86.7389 421.68 86.5332 422.694 86.1186C423.707 85.704 424.626 85.089 425.395 84.3106C426.165 83.5321 426.77 82.6063 427.173 81.5885C427.576 80.5707 427.769 79.482 427.741 78.3877V78.3877Z" fill="white"/>
<path d="M441.157 69V86.8709H446V88H440V69H441.157Z" fill="white"/>
<path d="M465.31 81.9503H457.69L455.304 88H454L461.546 69L469 88H467.715L465.31 81.9503ZM464.887 80.8348L461.528 72.1005L458.149 80.8348H464.887Z" fill="white"/>
<path d="M482.79 79.8822L477 69H478.329L483.445 78.5973L488.671 69H490L484.01 79.8822V88H482.845L482.79 79.8822Z" fill="white"/>
<path d="M512.388 69L518.079 84.5404L523.592 69H525L518.079 88L511 69H512.388Z" fill="white"/>
<path d="M543 70.1486H535.308V77.04H543V78.1691H535.308V86.8709H543V88H534V69H543V70.1486Z" fill="white"/>
<path d="M561.653 88L555.74 79.0355H555.197V88H554V69.021H556.62C557.971 68.9086 559.322 69.2493 560.474 69.9933C561.088 70.4541 561.581 71.0675 561.908 71.7775C562.235 72.4876 562.385 73.2714 562.345 74.0575C562.402 75.0714 562.131 76.0758 561.575 76.911C561.018 77.7462 560.21 78.364 559.277 78.6661C558.554 78.9205 557.794 79.0455 557.031 79.0355L563 88H561.653ZM555.197 77.9077H556.956C559.557 77.9077 561.11 76.4687 561.11 74.0186C561.162 73.3668 561.039 72.7129 560.755 72.1294C560.471 71.5458 560.037 71.0555 559.501 70.7128C558.618 70.3073 557.659 70.1145 556.694 70.1489H555.197V77.9077Z" fill="white"/>
<path d="M574.5 65.0007C574.797 65.0007 575.087 65.068 575.334 65.194C575.58 65.3201 575.772 65.4992 575.886 65.7088C575.999 65.9184 576.029 66.1491 575.971 66.3716C575.913 66.5941 575.771 66.7985 575.561 66.9589C575.351 67.1193 575.084 67.2286 574.793 67.2728C574.502 67.3171 574.201 67.2944 573.927 67.2076C573.653 67.1207 573.418 66.9737 573.254 66.7851C573.089 66.5964 573.001 66.3747 573.001 66.1478C572.994 65.9957 573.028 65.8442 573.101 65.7026C573.174 65.561 573.284 65.4324 573.425 65.3248C573.565 65.2172 573.733 65.1329 573.918 65.0771C574.103 65.0214 574.302 64.9953 574.5 65.0007V65.0007ZM575.3 69.3405V88H573.701V69.3405H575.3Z" fill="white"/>
<rect x="203" y="1" width="2" height="86.77" fill="white"/>
</svg>
