<svg xmlns="http://www.w3.org/2000/svg" viewBox="0 0 366.34 87.82"><defs><style>.cls-1{fill:#fff;}.cls-2{fill:#dbdbdb;}</style></defs><title>beyaz yatay kullanım - baskı mod</title><g id="katman_2" data-name="katman 2"><g id="Layer_1" data-name="Layer 1"><g id="beyaz_yatay_kullanım_-_baskı_mod" data-name="beyaz yatay kullanım - baskı mod"><path class="cls-1" d="M176.31,86.94l3.25-22.16,7.49,17.72,7.63-17.76,3,22.2H195.5l-1.84-14.61L187,87.82l-6.56-15.49-1.93,14.61Z"/><path class="cls-1" d="M215,68.14h-8v6.24h7.72v2.2H207v8.15h8v2.21H204.83v-21H215Z"/><path class="cls-1" d="M224.67,65.94a8,8,0,0,1,4.74,1.17,5.59,5.59,0,0,1,2.13,4.65c0,3.22-2,5.58-4.91,5.8l6.2,9.38H230.2l-5.94-9.19h-.56v9.19h-2.16v-21Zm-1,9.73h1.38c2.69,0,4.3-1.39,4.3-3.84a3.34,3.34,0,0,0-1.55-3.09,5.28,5.28,0,0,0-2.81-.6H223.7Z"/><path class="cls-1" d="M241,74.94l8.31-9h2.93l-9.13,9.79,9.42,11.21h-3l-8-9.64-.56.6v9h-2.16v-21H241Z"/><path class="cls-1" d="M268.17,68.14h-7.95v6.24h7.72v2.2h-7.72v8.15h7.95v2.21H258.05v-21h10.12Z"/><path class="cls-1" d="M276.57,84.73h10.35v2.21h-14l10.65-18.8h-9.27v-2.2h12.9Z"/><path class="cls-2" d="M304.12,65.94l4.95,13.44L314,65.94h4.85l-8.27,21h-3l-8.28-21Z"/><path class="cls-2" d="M334.75,70h-6.52v4.06h6.2v4.1h-6.2v4.66h6.52v4.09h-11v-21h11Z"/><path class="cls-2" d="M347.86,65.94a6.67,6.67,0,0,1,5,1.83,6.58,6.58,0,0,1,1.7,4.69,5.64,5.64,0,0,1-4.24,5.88l6,8.6h-5.5l-5.26-8.28v8.28H341v-21Zm-2.34,9.54h1a3.56,3.56,0,0,0,2.69-.91,2.92,2.92,0,0,0,.73-2,2.6,2.6,0,0,0-.9-2.14,4.14,4.14,0,0,0-2.49-.66h-1.05Z"/><path class="cls-2" d="M363.72,58.61a2.68,2.68,0,1,1-2.49,2.67A2.54,2.54,0,0,1,363.72,58.61ZM366,65.94v21h-4.51v-21Z"/><path class="cls-1" d="M177.44,47.66h5.91V43.52H184v9.76h-.65v-5h-5.91v5h-.64V43.52h.64Z"/><path class="cls-1" d="M195.33,50.08h-4.15l-1.31,3.2h-.7l4.11-10.05,4.06,10.05h-.71Zm-.23-.59-1.83-4.62-1.86,4.62Z"/><path class="cls-1" d="M202.82,52.7h5.78v.58h-6.86l5.94-9.17h-5.37v-.59h6.45Z"/><path class="cls-1" d="M214.92,43.52v9.76h-.65V43.52Z"/><path class="cls-1" d="M225.3,53.28l-3.16-4.61h-.29v4.61h-.64V43.52h1.4a3.39,3.39,0,0,1,2.06.5,2.42,2.42,0,0,1,1,2.09A2.34,2.34,0,0,1,224,48.48a3.6,3.6,0,0,1-1.2.19L226,53.28Zm-3.45-5.19h.94c1.39,0,2.22-.74,2.22-2a1.82,1.82,0,0,0-.86-1.7,3.42,3.42,0,0,0-1.5-.29h-.8Z"/><path class="cls-1" d="M238.36,43.52l2.87,8.31L244,43.52h.7l-3.48,10.16-3.57-10.16Z"/><path class="cls-1" d="M254.57,44.11h-4v3.54h3.95v.58h-3.95V52.7h4v.58h-4.68V43.52h4.68Z"/><path class="cls-1" d="M268,48.12l4.61-4.6h.85l-4.73,4.67,5,5.09h-.88l-4.59-4.65-.27.25v4.4h-.64V43.52H268Z"/><path class="cls-1" d="M288.55,48.42a5.06,5.06,0,1,1-5.06-5A5,5,0,0,1,288.55,48.42Zm-.67,0a4.39,4.39,0,1,0-4.39,4.44A4.33,4.33,0,0,0,287.88,48.42Z"/><path class="cls-1" d="M295,43.52V52.7h2.72v.58h-3.37V43.52Z"/><path class="cls-1" d="M307.9,50.08h-4.15l-1.3,3.2h-.71l4.11-10.05,4.06,10.05h-.7Zm-.23-.59-1.83-4.62L304,49.49Z"/><path class="cls-1" d="M317.18,49.11,314,43.52h.73l2.81,4.93,2.87-4.93h.73l-3.29,5.59v4.17h-.64Z"/><path class="cls-1" d="M332.94,43.52l2.87,8.31,2.78-8.31h.71l-3.49,10.16-3.57-10.16Z"/><path class="cls-1" d="M349.15,44.11h-4v3.54h4v.58h-4V52.7h4v.58h-4.68V43.52h4.68Z"/><path class="cls-1" d="M359,53.28l-3.16-4.61h-.29v4.61h-.64V43.52h1.4a3.39,3.39,0,0,1,2.06.5,2.42,2.42,0,0,1,1,2.09,2.34,2.34,0,0,1-1.64,2.37,3.6,3.6,0,0,1-1.2.19l3.19,4.61Zm-3.45-5.19h.94c1.39,0,2.22-.74,2.22-2a1.82,1.82,0,0,0-.86-1.7,3.42,3.42,0,0,0-1.5-.29h-.8Z"/><path class="cls-1" d="M365.74,41.25a.6.6,0,1,1-.6.6A.58.58,0,0,1,365.74,41.25Zm.32,2.27v9.76h-.64V43.52Z"/><polygon class="cls-2" points="189.66 27.74 180.17 0 148.41 0 157.9 27.74 189.66 27.74"/><polygon class="cls-1" points="148.41 0 118.74 86.77 150.5 86.77 180.18 0 148.41 0"/><polygon class="cls-2" points="89.07 0 118.74 86.77 150.5 86.77 120.82 0 89.07 0"/><polygon class="cls-1" points="89.04 0 59.36 86.77 91.12 86.77 120.8 0 89.04 0"/><polygon class="cls-2" points="29.69 0 59.37 86.77 91.12 86.77 61.45 0 29.69 0"/><polygon class="cls-1" points="29.68 0 0 86.77 31.76 86.77 61.43 0 29.68 0"/></g></g></g></svg>