<svg width="675" height="88" viewBox="0 0 675 88" fill="none" xmlns="http://www.w3.org/2000/svg">
<path d="M189.66 28.74L180.17 1H148.41L157.9 28.74H189.66Z" fill="#DBDBDB"/>
<path d="M148.41 1L118.74 87.77H150.5L180.18 1H148.41Z" fill="white"/>
<path d="M89.07 1L118.74 87.77H150.5L120.82 1H89.07Z" fill="#DBDBDB"/>
<path d="M89.04 1L59.36 87.77H91.12L120.8 1H89.04Z" fill="white"/>
<path d="M29.69 1L59.37 87.77H91.12L61.45 1H29.69Z" fill="#DBDBDB"/>
<path d="M29.68 1L0 87.77H31.76L61.43 1H29.68Z" fill="white"/>
<path d="M218 76.8648L225.936 23.0971L244.225 66.0919L262.856 23L270.182 76.8648H264.859L260.366 41.416L244.103 79L228.085 41.416L223.372 76.8648H218Z" fill="white"/>
<path d="M310.909 32.0182H291.887V46.7673H310.243V51.9673H291.887V71.2309H310.909V76.4545H286.727V26.8182H310.909V32.0182Z" fill="white"/>
<path d="M334.864 26.862C338.802 26.5941 342.725 27.5601 346.086 29.625C347.741 30.9231 349.063 32.5966 349.94 34.5066C350.817 36.4165 351.224 38.5076 351.128 40.6062C351.128 48.2104 346.393 53.7836 339.504 54.3032L354.182 76.4545H347.956L333.894 54.7519H332.568V76.4545H327.455V26.862H334.864ZM332.497 49.8398H335.764C342.132 49.8398 345.943 46.5573 345.943 40.7715C346.057 39.337 345.776 37.8987 345.129 36.6125C344.482 35.3263 343.495 34.241 342.274 33.4743C340.231 32.3976 337.928 31.9072 335.622 32.0574H332.568L332.497 49.8398Z" fill="white"/>
<path d="M373.464 47.419L393.506 25.6423H400.573L378.553 49.3305L401.273 76.4546H394.037L374.742 53.1293L373.391 54.5811V76.3578H368.182V25.5455H373.464V47.419Z" fill="white"/>
<path d="M439.455 32.0182H419.458V46.7673H438.876V51.9673H419.458V71.2309H439.455V76.4545H414V26.8182H439.455V32.0182Z" fill="white"/>
<path d="M458.42 71.2309H483.326V76.4545H449.636L475.265 32.0182H452.957V26.8182H484L458.42 71.2309Z" fill="white"/>
<path d="M524.883 26.8182L536.806 58.5854L548.681 26.8182H560.364L540.443 76.4545H533.217L513.273 26.8182H524.883Z" fill="#DBDBDB"/>
<path d="M598.545 36.4854H582.703V46.0818H597.768V55.7727H582.703V66.7873H598.545V76.4545H571.818V26.8182H598.545V36.4854Z" fill="#DBDBDB"/>
<path d="M630.345 26.8463C632.548 26.7171 634.755 27.0343 636.827 27.7781C638.9 28.5218 640.794 29.6762 642.391 31.1693C645.187 34.192 646.658 38.1714 646.487 42.2484C646.721 45.3717 645.825 48.4758 643.957 51.0159C642.089 53.5561 639.368 55.3698 636.272 56.1388L650.727 76.4545H637.477L624.804 56.8947V76.4545H613.818V26.8463H630.345ZM624.708 49.3826H627.117C628.29 49.4795 629.47 49.3386 630.585 48.9688C631.7 48.599 632.726 48.0081 633.598 47.2329C634.77 45.9312 635.398 44.2441 635.357 42.5083C635.419 41.5585 635.256 40.6075 634.88 39.7302C634.503 38.8529 633.924 38.0733 633.188 37.453C631.409 36.321 629.307 35.7748 627.189 35.8938H624.66L624.708 49.3826Z" fill="#DBDBDB"/>
<path d="M668.099 9.01606C669.373 8.92521 670.645 9.22137 671.749 9.86596C672.853 10.5106 673.737 11.4737 674.288 12.63C674.839 13.7862 675.029 15.082 674.835 16.3485C674.641 17.615 674.072 18.7936 673.2 19.7307C672.329 20.6678 671.197 21.3201 669.951 21.6024C668.705 21.8848 667.403 21.7843 666.215 21.3139C665.027 20.8435 664.007 20.0251 663.289 18.9653C662.571 17.9054 662.188 16.6533 662.19 15.3719C662.148 14.5621 662.27 13.7523 662.546 12.9905C662.823 12.2287 663.25 11.5306 663.801 10.9376C664.353 10.3447 665.017 9.86897 665.755 9.53885C666.493 9.20874 667.29 9.03095 668.099 9.01606V9.01606ZM673.509 26.4648V76.4545H662.807V26.4648H673.509Z" fill="#DBDBDB"/>
<rect x="203" y="1" width="2" height="86.77" fill="white"/>
</svg>
